PathFileType	4	(X/Y/Z)	OpenSim_Sub05_CSBaseline_Magnet.trc
DataRate	CameraRate	NumFrames	NumMarkers	Units	OrigDataRate	OrigDataStartFrame	OrigNumFrames
100	100	16	8	m	100	6599	10557
Frame#	Time	torso_imu_offset_imu	pelvis_imu_offset_imu	tibia_r_imu_offset_imu	femur_r_imu_offset_imu	tibia_l_imu_offset_imu	femur_l_imu_offset_imu	toes_r_imu_offset_imu	toes_l_imu_offset_imu
				X1	Y1	Z1	X2	Y2	Z2	X3	Y3	Z3	X4	Y4	Z4	X5	Y5	Z5	X6	Y6	Z6	X7	Y7	Z7	X8		Y8	Z8	

6599	65.98000000	-0.89162827	-0.26516867	0.13650124	-0.66537796	0.26049158	-0.62340477	-0.27600191	-0.75558781	-0.12698440	-0.88098124	-0.10747255	-0.08298184	-0.63311884	0.43505453	0.29774405	-0.58716814	0.23474379	0.26662227	-0.77413354	-0.22591345	0.12937697	-0.68263051	-0.25936521	-0.37207631
6600	65.99000000	-0.88971445	-0.26590145	0.13384352	-0.66506348	0.26069104	-0.62410175	-0.30351125	-0.74357075	-0.12023003	-0.88239098	-0.10554842	-0.07413606	-0.63118656	0.43813986	0.29471989	-0.58221790	0.23791840	0.27180792	-0.77337560	-0.21485598	0.09938052	-0.68371330	-0.25969322	-0.36573146
6601	66	-0.89258846	-0.26921529	0.13500887	-0.65990153	0.26113696	-0.62509794	-0.33160354	-0.73212896	-0.12433468	-0.88182278	-0.10654552	-0.07126959	-0.62705228	0.44188957	0.29750995	-0.57903016	0.24496261	0.27732338	-0.77590219	-0.20649599	0.06509895	-0.67733756	-0.26060937	-0.36145487
6602	66.01000000	-0.88762580	-0.27003789	0.13033534	-0.66264830	0.25778968	-0.63147398	-0.36885355	-0.70796077	-0.12769415	-0.88355147	-0.10658782	-0.06996598	-0.62514654	0.44825165	0.30365065	-0.58127823	0.24619183	0.27660369	-0.78428715	-0.19129284	0.02257282	-0.67830534	-0.26563498	-0.35679061
6603	66.02000000	-0.88612029	-0.27352853	0.13034212	-0.66077937	0.25603772	-0.63503482	-0.40145005	-0.69238714	-0.12966060	-0.88506820	-0.10110924	-0.06434214	-0.61773823	0.45720406	0.30396126	-0.57687743	0.25038113	0.28030966	-0.78455478	-0.17587276	-0.01262402	-0.67205161	-0.26428871	-0.36080890
6604	66.03000000	-0.88085571	-0.27279702	0.12909331	-0.65782998	0.25847707	-0.63737860	-0.43085787	-0.67397008	-0.12967912	-0.88113529	-0.10777258	-0.06202912	-0.61311757	0.45604058	0.30369086	-0.57362120	0.25809202	0.28174028	-0.78154414	-0.16149837	-0.05166636	-0.68168531	-0.26733730	-0.36460966
6605	66.04000000	-0.88168714	-0.27462934	0.13194918	-0.65400641	0.25738558	-0.63786031	-0.47148299	-0.64529206	-0.12691398	-0.87949607	-0.11636041	-0.05566115	-0.61052850	0.46098512	0.30338708	-0.56942256	0.25938827	0.28062688	-0.78420325	-0.14809906	-0.09396369	-0.67935926	-0.26710428	-0.36807695
6606	66.05000000	-0.88572557	-0.28129060	0.13249592	-0.65248893	0.25612215	-0.63950216	-0.50094109	-0.61864392	-0.12010178	-0.88021997	-0.12055600	-0.05105489	-0.60329637	0.47209537	0.30371763	-0.57041657	0.26221703	0.28484996	-0.77883819	-0.13789190	-0.13533259	-0.67526921	-0.26604928	-0.35911202
6607	66.06000000	-0.88264684	-0.28508115	0.12940851	-0.65314852	0.25849070	-0.63954817	-0.53188559	-0.59577190	-0.11164614	-0.87646687	-0.12551247	-0.03970167	-0.60427032	0.47137865	0.31007610	-0.56776314	0.26649266	0.28540747	-0.77215502	-0.12285118	-0.16686142	-0.67586749	-0.26714412	-0.35713998
6608	66.07000000	-0.87888580	-0.28288299	0.13022766	-0.65115542	0.25724663	-0.63285625	-0.56522656	-0.57156816	-0.10565742	-0.87459928	-0.13621671	-0.02559492	-0.59821825	0.47696431	0.31115357	-0.56723910	0.27305961	0.28937205	-0.76322378	-0.10714595	-0.19960306	-0.67721703	-0.27355381	-0.35837044
6609	66.08000000	-0.88238703	-0.28739808	0.13401450	-0.65144223	0.25674802	-0.64177775	-0.58699846	-0.54480814	-0.11151203	-0.87560359	-0.15041982	-0.01963380	-0.59510317	0.48361341	0.30295589	-0.56198304	0.27590314	0.28740407	-0.75343208	-0.09314828	-0.23849826	-0.67866140	-0.26237179	-0.36054454
6610	66.09000000	-0.88180370	-0.29065692	0.12896278	-0.65690159	0.25556675	-0.64242844	-0.60896294	-0.51689896	-0.11310440	-0.86808291	-0.16664115	-0.01148820	-0.59514791	0.48680240	0.30721373	-0.56142604	0.28189203	0.28457043	-0.73964905	-0.07623113	-0.26793921	-0.67768002	-0.26547871	-0.35773294
6611	66.10000000	-0.88060737	-0.29473745	0.12728283	-0.65174199	0.25270735	-0.63799052	-0.63447274	-0.48287554	-0.11269603	-0.86417586	-0.18221682	-0.00080022	-0.58867668	0.49539314	0.30483053	-0.56378964	0.28320273	0.29057014	-0.73115088	-0.06451370	-0.29841031	-0.68110278	-0.26753606	-0.35547987
6612	66.11000000	-0.88098675	-0.29421328	0.12545999	-0.65457166	0.25296013	-0.63707199	-0.65184606	-0.46092537	-0.11571789	-0.85728961	-0.19404514	0.00481886	-0.58634119	0.49901641	0.30731464	-0.55688256	0.28806210	0.29261847	-0.72402873	-0.05102583	-0.32536736	-0.68456360	-0.26768001	-0.35926999
6613	66.12000000	-0.88059961	-0.29368163	0.12849096	-0.65876498	0.24798044	-0.64146494	-0.66771992	-0.43740506	-0.11642708	-0.85069034	-0.21214775	0.01256679	-0.57686689	0.50520567	0.30199891	-0.55120176	0.29158775	0.29219402	-0.70607569	-0.03884677	-0.35193780	-0.68475274	-0.26772836	-0.36341760
6614	66.13000000	-0.88252271	-0.29110795	0.12833207	-0.66034167	0.24435846	-0.63871724	-0.67644351	-0.41928600	-0.10944129	-0.84837042	-0.22143476	0.01380535	-0.57437833	0.51654225	0.30709219	-0.55754672	0.29635342	0.29202144	-0.69613946	-0.03014712	-0.37524060	-0.68533414	-0.26263302	-0.35891632
